<svg xmlns="http://www.w3.org/2000/svg" viewBox="0 0 158.34 149.94"><g id="Capa_2" data-name="Capa 2"><g id="Capa_1-2" data-name="Capa 1"><path d="M67.54,0V94.94a45.55,45.55,0,0,1-21.93,38.95l-.09.05h0c-.28.17-.56.34-.85.5l-8.5,5.06L18.63,149.94A75.43,75.43,0,0,1,6.77,131.66s17.71-9.49,27.25-16.2c7.13-5.29,11.5-11.83,11.5-20.52V19.6H0V0Z"/><path d="M103.59,24.75A5.13,5.13,0,0,0,108.84,30h27q10.2,0,16.35,6.1t6.15,16.2v6q0,10.11-6.15,16.2t-16.35,6.1h-57V60.3h48a5.23,5.23,0,0,0,3.75-1.43,4.78,4.78,0,0,0,1.5-3.6v-5H99.84q-10.2,0-16.35-6.15T77.34,27.75V22.5q0-10.2,6.15-16.35T99.84,0h51V19.5h-42a5.13,5.13,0,0,0-5.25,5.25Z"/></g></g></svg>